<svg width="682" height="213" viewBox="0 0 682 213" fill="none" xmlns="http://www.w3.org/2000/svg">
<g filter="url(#filter0_i_40000668_190)">
<g clip-path="url(#clip0_40000668_190)">
<path d="M106.569 213.138C165.395 213.138 213.138 165.395 213.138 106.569C213.138 47.7429 165.395 0 106.569 0C47.7429 0 0 47.7429 0 106.569C0 165.395 47.7429 213.138 106.569 213.138Z" fill="#FF0033"/>
<g filter="url(#filter1_d_40000668_190)">
<path d="M114.927 122.128C123.622 117.124 127.97 114.622 129.428 111.353C130.699 108.502 130.699 105.245 129.428 102.394C127.97 99.1247 123.622 96.6229 114.927 91.6191L76.3785 69.4353C67.7202 64.4526 63.391 61.9613 59.8394 62.3382C56.7414 62.6669 53.9282 64.2938 52.0981 66.8149C50 69.7052 50 74.7 50 84.6897V129.057C50 139.047 50 144.042 52.0981 146.932C53.9282 149.453 56.7414 151.08 59.8394 151.409C63.391 151.786 67.7202 149.294 76.3785 144.312L114.927 122.128Z" fill="white"/>
<path d="M59.8926 62.8353C61.5315 62.6615 63.4005 63.1437 65.9854 64.3314C68.568 65.518 71.7914 67.3724 76.1289 69.8685L114.678 92.0521C119.034 94.5588 122.271 96.4225 124.604 98.0657C126.938 99.7104 128.298 101.089 128.971 102.597C130.184 105.319 130.184 108.428 128.971 111.15C128.298 112.658 126.938 114.036 124.604 115.681C122.271 117.324 119.034 119.188 114.678 121.695L76.1289 143.878C71.7914 146.374 68.568 148.229 65.9854 149.415C63.4005 150.603 61.5315 151.085 59.8926 150.911C56.9354 150.598 54.2498 149.045 52.5029 146.638C51.5348 145.304 51.0197 143.444 50.7598 140.612C50.5001 137.781 50.5 134.062 50.5 129.057V84.6898C50.5 79.6853 50.5001 75.9664 50.7598 73.136C51.0197 70.3031 51.5347 68.4425 52.5029 67.1087C54.2498 64.7022 56.9355 63.149 59.8926 62.8353Z" stroke="black" stroke-opacity="0.04"/>
<rect x="146.611" y="60.4025" width="16.3893" height="91.4351" rx="8.19466" fill="white"/>
<rect x="147.111" y="60.9025" width="15.3893" height="90.4351" rx="7.69466" stroke="black" stroke-opacity="0.04"/>
</g>
</g>
<rect x="2" y="2" width="209" height="209" rx="104.5" stroke="#FF0033" stroke-opacity="0.5" stroke-width="4"/>
</g>
<path d="M265.702 55L288.422 96.606L310.858 55H333.152L298.788 116.486V155.82H278.056V116.486L243.408 55H265.702Z" fill="black"/>
<path d="M418.872 72.608H388.626V155.82H367.894V72.608H337.648V55H418.872V72.608Z" fill="black"/>
<path d="M470.488 155.82L469.92 134.378L472.476 135.514C471.34 143.182 468.595 148.767 464.24 152.27C459.886 155.773 454.49 157.524 448.052 157.524C440.006 157.524 433.71 154.968 429.166 149.856C424.717 144.649 422.492 137.691 422.492 128.982V80.56H442.94V122.166C442.94 126.615 443.319 130.213 444.076 132.958C444.834 135.609 446.017 137.644 447.626 139.064C449.33 140.484 451.65 141.194 454.584 141.194C459.128 141.194 462.631 139.585 465.092 136.366C467.554 133.147 468.784 128.414 468.784 122.166V80.56H489.232V155.82H470.488Z" fill="black"/>
<path d="M519.809 55V90.784C522.081 86.9027 525.11 83.968 528.897 81.98C532.683 79.8973 537.133 78.856 542.245 78.856C548.966 78.856 554.741 80.6073 559.569 84.11C564.397 87.518 567.994 92.204 570.361 98.168C572.822 104.132 574.053 110.806 574.053 118.19C574.053 125.574 572.822 132.248 570.361 138.212C567.994 144.176 564.397 148.909 559.569 152.412C554.741 155.82 548.966 157.524 542.245 157.524C536.849 157.524 532.21 156.483 528.329 154.4C524.447 152.223 521.465 149.099 519.383 145.028L518.957 155.82H499.361V55H519.809ZM518.531 118.19C518.531 122.45 519.146 126.379 520.377 129.976C521.702 133.479 523.643 136.319 526.199 138.496C528.755 140.579 531.973 141.62 535.855 141.62C541.44 141.62 545.7 139.395 548.635 134.946C551.569 130.402 553.037 124.817 553.037 118.19C553.037 111.279 551.569 105.599 548.635 101.15C545.795 96.606 541.535 94.334 535.855 94.334C532.068 94.334 528.849 95.4227 526.199 97.6C523.643 99.6827 521.702 102.523 520.377 106.12C519.146 109.717 518.531 113.741 518.531 118.19Z" fill="black"/>
<path d="M600.316 80.56V155.82H579.868V80.56H600.316ZM600.742 55V70.62H579.584V55H600.742Z" fill="black"/>
<path d="M660.137 109.102C659.569 104.558 657.865 101.055 655.025 98.594C652.28 96.1327 648.966 94.902 645.085 94.902C639.594 94.902 635.334 96.9373 632.305 101.008C629.37 105.079 627.903 110.806 627.903 118.19C627.903 125.574 629.37 131.301 632.305 135.372C635.334 139.443 639.594 141.478 645.085 141.478C649.156 141.478 652.564 140.2 655.309 137.644C658.149 135.088 659.9 131.396 660.563 126.568L681.721 127.42C681.058 133.479 679.07 138.78 675.757 143.324C672.444 147.868 668.089 151.371 662.693 153.832C657.392 156.293 651.522 157.524 645.085 157.524C637.417 157.524 630.696 155.915 624.921 152.696C619.146 149.477 614.697 144.886 611.573 138.922C608.449 132.958 606.887 126.047 606.887 118.19C606.887 110.333 608.449 103.422 611.573 97.458C614.697 91.494 619.146 86.9027 624.921 83.684C630.696 80.4653 637.417 78.856 645.085 78.856C651.333 78.856 657.108 80.0393 662.409 82.406C667.71 84.7727 671.97 88.1807 675.189 92.63C678.502 96.9847 680.49 102.097 681.153 107.966L660.137 109.102Z" fill="black"/>
<defs>
<filter id="filter0_i_40000668_190" x="0" y="0" width="213" height="213" filterUnits="userSpaceOnUse" color-interpolation-filters="sRGB">
<feFlood flood-opacity="0" result="BackgroundImageFix"/>
<feBlend mode="normal" in="SourceGraphic" in2="BackgroundImageFix" result="shape"/>
<feColorMatrix in="SourceAlpha" type="matrix" values="0 0 0 0 0 0 0 0 0 0 0 0 0 0 0 0 0 0 127 0" result="hardAlpha"/>
<feOffset/>
<feGaussianBlur stdDeviation="16"/>
<feComposite in2="hardAlpha" operator="arithmetic" k2="-1" k3="1"/>
<feColorMatrix type="matrix" values="0 0 0 0 1 0 0 0 0 1 0 0 0 0 1 0 0 0 0.5 0"/>
<feBlend mode="normal" in2="shape" result="effect1_innerShadow_40000668_190"/>
</filter>
<filter id="filter1_d_40000668_190" x="34" y="44.4025" width="145" height="123.435" filterUnits="userSpaceOnUse" color-interpolation-filters="sRGB">
<feFlood flood-opacity="0" result="BackgroundImageFix"/>
<feColorMatrix in="SourceAlpha" type="matrix" values="0 0 0 0 0 0 0 0 0 0 0 0 0 0 0 0 0 0 127 0" result="hardAlpha"/>
<feOffset/>
<feGaussianBlur stdDeviation="8"/>
<feComposite in2="hardAlpha" operator="out"/>
<feColorMatrix type="matrix" values="0 0 0 0 0 0 0 0 0 0 0 0 0 0 0 0 0 0 0.25 0"/>
<feBlend mode="normal" in2="BackgroundImageFix" result="effect1_dropShadow_40000668_190"/>
<feBlend mode="normal" in="SourceGraphic" in2="effect1_dropShadow_40000668_190" result="shape"/>
</filter>
<clipPath id="clip0_40000668_190">
<rect width="213" height="213" rx="106.5" fill="white"/>
</clipPath>
</defs>
</svg>
